<?xml version="1.0" encoding="UTF-8"?>
<svg width="32px" height="32px" viewBox="0 0 32 32" version="1.1" xmlns="http://www.w3.org/2000/svg">
    <g id="bird" stroke="none" fill="none" transform="translate(0, 0)">
        <path d="M26,7 C26,7 24.5,7.5 23,9 C21.5,10.5 21,12 21,12 L18,13 C18,13 19,10 17,8 C15,6 12,7 12,7 C12,7 13,5 11,4 C9,3 6,4 6,4 C6,4 8,3.5 10,5 C12,6.5 11,9 11,9 C11,9 8,9 6,11 C4,13 5,16 5,16 L3,16 L4,18 L7,17 C7,17 8,19 10,20 C12,21 14,20 14,20 L16,24 L18,22 L16,19 C16,19 20,19 22,17 C24,15 23,12 23,12 L26,11 L25,9 L23,10 C23,10 24,7 25,9 C26,11 26,7 26,7 Z" id="body" fill="#3B82F6" fill-rule="nonzero"></path>
        <circle id="eye" fill="#FFFFFF" cx="21" cy="10" r="1"></circle>
    </g>
</svg>
